<mxfile host="Electron" modified="2023-08-10T02:52:52.741Z" agent="Mozilla/5.0 (Windows NT 10.0; Win64; x64) AppleWebKit/537.36 (KHTML, like Gecko) draw.io/21.2.8 Chrome/112.0.5615.165 Electron/24.2.0 Safari/537.36" etag="ngfbhm6_s3Asrtf6hkOr" version="21.2.8" type="device" pages="6">
  <diagram id="c3wsxeW9VfYVjVdndttN" name="Hallazgo">
    <mxGraphModel dx="864" dy="508" grid="1" gridSize="10" guides="1" tooltips="1" connect="1" arrows="1" fold="1" page="1" pageScale="1" pageWidth="827" pageHeight="1169" math="0" shadow="0">
      <root>
        <mxCell id="0" />
        <mxCell id="1" parent="0" />
        <mxCell id="3DWU5Ann643cm-ORA4wk-1" value="" style="shape=umlLifeline;perimeter=lifelinePerimeter;whiteSpace=wrap;html=1;container=1;dropTarget=0;collapsible=0;recursiveResize=0;outlineConnect=0;portConstraint=eastwest;newEdgeStyle={&quot;edgeStyle&quot;:&quot;elbowEdgeStyle&quot;,&quot;elbow&quot;:&quot;vertical&quot;,&quot;curved&quot;:0,&quot;rounded&quot;:0};participant=umlActor;" parent="1" vertex="1">
          <mxGeometry x="370" y="890" width="20" height="470" as="geometry" />
        </mxCell>
        <mxCell id="O9HUUC9VaAOcV9BN0eb_-8" value="" style="html=1;points=[];perimeter=orthogonalPerimeter;outlineConnect=0;targetShapes=umlLifeline;portConstraint=eastwest;newEdgeStyle={&quot;edgeStyle&quot;:&quot;elbowEdgeStyle&quot;,&quot;elbow&quot;:&quot;vertical&quot;,&quot;curved&quot;:0,&quot;rounded&quot;:0};" parent="3DWU5Ann643cm-ORA4wk-1" vertex="1">
          <mxGeometry x="5" y="70" width="10" height="370" as="geometry" />
        </mxCell>
        <mxCell id="O9HUUC9VaAOcV9BN0eb_-1" value="" style="shape=umlLifeline;perimeter=lifelinePerimeter;whiteSpace=wrap;html=1;container=1;dropTarget=0;collapsible=0;recursiveResize=0;outlineConnect=0;portConstraint=eastwest;newEdgeStyle={&quot;edgeStyle&quot;:&quot;elbowEdgeStyle&quot;,&quot;elbow&quot;:&quot;vertical&quot;,&quot;curved&quot;:0,&quot;rounded&quot;:0};participant=umlBoundary;fontSize=12;fillColor=#dae8fc;strokeColor=#6c8ebf;" parent="1" vertex="1">
          <mxGeometry x="510" y="890" width="50" height="470" as="geometry" />
        </mxCell>
        <mxCell id="O9HUUC9VaAOcV9BN0eb_-35" style="edgeStyle=elbowEdgeStyle;rounded=0;orthogonalLoop=1;jettySize=auto;html=1;elbow=vertical;curved=0;" parent="O9HUUC9VaAOcV9BN0eb_-1" source="O9HUUC9VaAOcV9BN0eb_-9" target="O9HUUC9VaAOcV9BN0eb_-1" edge="1">
          <mxGeometry relative="1" as="geometry" />
        </mxCell>
        <mxCell id="O9HUUC9VaAOcV9BN0eb_-9" value="" style="html=1;points=[];perimeter=orthogonalPerimeter;outlineConnect=0;targetShapes=umlLifeline;portConstraint=eastwest;newEdgeStyle={&quot;edgeStyle&quot;:&quot;elbowEdgeStyle&quot;,&quot;elbow&quot;:&quot;vertical&quot;,&quot;curved&quot;:0,&quot;rounded&quot;:0};" parent="O9HUUC9VaAOcV9BN0eb_-1" vertex="1">
          <mxGeometry x="20" y="70" width="10" height="190" as="geometry" />
        </mxCell>
        <mxCell id="O9HUUC9VaAOcV9BN0eb_-37" value="" style="html=1;points=[];perimeter=orthogonalPerimeter;outlineConnect=0;targetShapes=umlLifeline;portConstraint=eastwest;newEdgeStyle={&quot;edgeStyle&quot;:&quot;elbowEdgeStyle&quot;,&quot;elbow&quot;:&quot;vertical&quot;,&quot;curved&quot;:0,&quot;rounded&quot;:0};" parent="O9HUUC9VaAOcV9BN0eb_-1" vertex="1">
          <mxGeometry x="20" y="300" width="10" height="120" as="geometry" />
        </mxCell>
        <mxCell id="4FQauCy_jsnJDFFm2DyC-2" value="CrearHallazgo():BEHallazgo" style="html=1;align=left;spacingLeft=2;endArrow=block;rounded=0;edgeStyle=orthogonalEdgeStyle;curved=0;rounded=0;" parent="O9HUUC9VaAOcV9BN0eb_-1" source="O9HUUC9VaAOcV9BN0eb_-37" target="O9HUUC9VaAOcV9BN0eb_-37" edge="1">
          <mxGeometry relative="1" as="geometry">
            <mxPoint x="30" y="310" as="sourcePoint" />
            <Array as="points">
              <mxPoint x="60" y="310" />
              <mxPoint x="60" y="340" />
            </Array>
            <mxPoint x="35" y="340" as="targetPoint" />
          </mxGeometry>
        </mxCell>
        <mxCell id="O9HUUC9VaAOcV9BN0eb_-4" value="Instructor" style="text;html=1;align=center;verticalAlign=middle;resizable=0;points=[];autosize=1;strokeColor=none;fillColor=none;" parent="1" vertex="1">
          <mxGeometry x="345" y="860" width="70" height="30" as="geometry" />
        </mxCell>
        <mxCell id="O9HUUC9VaAOcV9BN0eb_-6" value=":BLLHallazgo" style="shape=umlLifeline;perimeter=lifelinePerimeter;whiteSpace=wrap;html=1;container=1;dropTarget=0;collapsible=0;recursiveResize=0;outlineConnect=0;portConstraint=eastwest;newEdgeStyle={&quot;edgeStyle&quot;:&quot;elbowEdgeStyle&quot;,&quot;elbow&quot;:&quot;vertical&quot;,&quot;curved&quot;:0,&quot;rounded&quot;:0};fillColor=#f8cecc;strokeColor=#b85450;" parent="1" vertex="1">
          <mxGeometry x="690" y="880" width="100" height="480" as="geometry" />
        </mxCell>
        <mxCell id="O9HUUC9VaAOcV9BN0eb_-14" value="" style="html=1;points=[];perimeter=orthogonalPerimeter;outlineConnect=0;targetShapes=umlLifeline;portConstraint=eastwest;newEdgeStyle={&quot;edgeStyle&quot;:&quot;elbowEdgeStyle&quot;,&quot;elbow&quot;:&quot;vertical&quot;,&quot;curved&quot;:0,&quot;rounded&quot;:0};" parent="O9HUUC9VaAOcV9BN0eb_-6" vertex="1">
          <mxGeometry x="45" y="140" width="10" height="40" as="geometry" />
        </mxCell>
        <mxCell id="O9HUUC9VaAOcV9BN0eb_-40" value="" style="html=1;points=[];perimeter=orthogonalPerimeter;outlineConnect=0;targetShapes=umlLifeline;portConstraint=eastwest;newEdgeStyle={&quot;edgeStyle&quot;:&quot;elbowEdgeStyle&quot;,&quot;elbow&quot;:&quot;vertical&quot;,&quot;curved&quot;:0,&quot;rounded&quot;:0};" parent="O9HUUC9VaAOcV9BN0eb_-6" vertex="1">
          <mxGeometry x="45" y="360" width="10" height="50" as="geometry" />
        </mxCell>
        <mxCell id="O9HUUC9VaAOcV9BN0eb_-7" value="UI Hallazgo" style="text;html=1;align=center;verticalAlign=middle;resizable=0;points=[];autosize=1;strokeColor=none;fillColor=none;" parent="1" vertex="1">
          <mxGeometry x="490" y="860" width="90" height="30" as="geometry" />
        </mxCell>
        <mxCell id="O9HUUC9VaAOcV9BN0eb_-10" value="Ingresar Hallazgo()" style="html=1;verticalAlign=bottom;endArrow=block;edgeStyle=elbowEdgeStyle;elbow=vertical;curved=0;rounded=0;" parent="1" source="O9HUUC9VaAOcV9BN0eb_-8" target="O9HUUC9VaAOcV9BN0eb_-9" edge="1">
          <mxGeometry relative="1" as="geometry">
            <mxPoint x="460" y="970" as="sourcePoint" />
            <Array as="points">
              <mxPoint x="480" y="970" />
              <mxPoint x="360" y="960" />
            </Array>
          </mxGeometry>
        </mxCell>
        <mxCell id="O9HUUC9VaAOcV9BN0eb_-11" value="mostrarCampos()" style="html=1;verticalAlign=bottom;endArrow=open;dashed=1;endSize=8;edgeStyle=elbowEdgeStyle;elbow=vertical;curved=0;rounded=0;" parent="1" source="O9HUUC9VaAOcV9BN0eb_-9" target="O9HUUC9VaAOcV9BN0eb_-8" edge="1">
          <mxGeometry relative="1" as="geometry">
            <mxPoint x="460" y="1045" as="targetPoint" />
            <Array as="points">
              <mxPoint x="450" y="1140" />
            </Array>
          </mxGeometry>
        </mxCell>
        <mxCell id="O9HUUC9VaAOcV9BN0eb_-12" value=":BLLUnidad" style="shape=umlLifeline;perimeter=lifelinePerimeter;whiteSpace=wrap;html=1;container=1;dropTarget=0;collapsible=0;recursiveResize=0;outlineConnect=0;portConstraint=eastwest;newEdgeStyle={&quot;edgeStyle&quot;:&quot;elbowEdgeStyle&quot;,&quot;elbow&quot;:&quot;vertical&quot;,&quot;curved&quot;:0,&quot;rounded&quot;:0};fillColor=#f8cecc;strokeColor=#b85450;" parent="1" vertex="1">
          <mxGeometry x="820" y="880" width="100" height="480" as="geometry" />
        </mxCell>
        <mxCell id="O9HUUC9VaAOcV9BN0eb_-24" value="" style="html=1;points=[];perimeter=orthogonalPerimeter;outlineConnect=0;targetShapes=umlLifeline;portConstraint=eastwest;newEdgeStyle={&quot;edgeStyle&quot;:&quot;elbowEdgeStyle&quot;,&quot;elbow&quot;:&quot;vertical&quot;,&quot;curved&quot;:0,&quot;rounded&quot;:0};" parent="O9HUUC9VaAOcV9BN0eb_-12" vertex="1">
          <mxGeometry x="45" y="90" width="10" height="40" as="geometry" />
        </mxCell>
        <mxCell id="O9HUUC9VaAOcV9BN0eb_-15" value="MostrarHallazgos(BEUnidad)" style="html=1;verticalAlign=bottom;endArrow=block;edgeStyle=elbowEdgeStyle;elbow=vertical;curved=0;rounded=0;" parent="1" target="O9HUUC9VaAOcV9BN0eb_-14" edge="1">
          <mxGeometry relative="1" as="geometry">
            <mxPoint x="540" y="1030" as="sourcePoint" />
            <Array as="points">
              <mxPoint x="680" y="1030" />
              <mxPoint x="660" y="1040" />
              <mxPoint x="570" y="1020" />
              <mxPoint x="720" y="1010" />
            </Array>
          </mxGeometry>
        </mxCell>
        <mxCell id="O9HUUC9VaAOcV9BN0eb_-16" value="List&amp;lt;BEHallazgo&amp;gt;" style="html=1;verticalAlign=bottom;endArrow=open;dashed=1;endSize=8;edgeStyle=elbowEdgeStyle;elbow=vertical;curved=0;rounded=0;" parent="1" source="O9HUUC9VaAOcV9BN0eb_-14" edge="1">
          <mxGeometry relative="1" as="geometry">
            <mxPoint x="540" y="1060" as="targetPoint" />
            <Array as="points">
              <mxPoint x="680" y="1060" />
            </Array>
            <mxPoint as="offset" />
          </mxGeometry>
        </mxCell>
        <mxCell id="O9HUUC9VaAOcV9BN0eb_-18" value="ObtenerNroActa(BEUnidad, Anio: int)" style="html=1;verticalAlign=bottom;endArrow=block;edgeStyle=elbowEdgeStyle;elbow=vertical;curved=0;rounded=0;" parent="1" target="O9HUUC9VaAOcV9BN0eb_-20" edge="1">
          <mxGeometry relative="1" as="geometry">
            <mxPoint x="540" y="1100" as="sourcePoint" />
            <mxPoint x="715" y="1100" as="targetPoint" />
            <Array as="points">
              <mxPoint x="560" y="1100" />
              <mxPoint x="710" y="1090" />
            </Array>
          </mxGeometry>
        </mxCell>
        <mxCell id="O9HUUC9VaAOcV9BN0eb_-19" value="List&amp;lt;BEHallazgo&amp;gt;" style="html=1;verticalAlign=bottom;endArrow=open;dashed=1;endSize=8;edgeStyle=elbowEdgeStyle;elbow=vertical;curved=0;rounded=0;" parent="1" source="O9HUUC9VaAOcV9BN0eb_-20" edge="1">
          <mxGeometry relative="1" as="geometry">
            <mxPoint x="540" y="1120" as="targetPoint" />
            <mxPoint x="730" y="1120" as="sourcePoint" />
            <Array as="points" />
            <mxPoint as="offset" />
          </mxGeometry>
        </mxCell>
        <mxCell id="O9HUUC9VaAOcV9BN0eb_-20" value="" style="html=1;points=[];perimeter=orthogonalPerimeter;outlineConnect=0;targetShapes=umlLifeline;portConstraint=eastwest;newEdgeStyle={&quot;edgeStyle&quot;:&quot;elbowEdgeStyle&quot;,&quot;elbow&quot;:&quot;vertical&quot;,&quot;curved&quot;:0,&quot;rounded&quot;:0};" parent="1" vertex="1">
          <mxGeometry x="735" y="1090" width="10" height="40" as="geometry" />
        </mxCell>
        <mxCell id="O9HUUC9VaAOcV9BN0eb_-25" value="ObternerUnidad(Destino)" style="html=1;verticalAlign=bottom;endArrow=block;edgeStyle=elbowEdgeStyle;elbow=vertical;curved=0;rounded=0;" parent="1" source="O9HUUC9VaAOcV9BN0eb_-9" target="O9HUUC9VaAOcV9BN0eb_-24" edge="1">
          <mxGeometry relative="1" as="geometry">
            <mxPoint x="670" y="1050" as="sourcePoint" />
            <Array as="points">
              <mxPoint x="620" y="980" />
              <mxPoint x="830" y="970" />
            </Array>
          </mxGeometry>
        </mxCell>
        <mxCell id="O9HUUC9VaAOcV9BN0eb_-26" value="BEUnidad" style="html=1;verticalAlign=bottom;endArrow=open;dashed=1;endSize=8;edgeStyle=elbowEdgeStyle;elbow=vertical;curved=0;rounded=0;" parent="1" source="O9HUUC9VaAOcV9BN0eb_-24" target="O9HUUC9VaAOcV9BN0eb_-9" edge="1">
          <mxGeometry relative="1" as="geometry">
            <mxPoint x="670" y="1125" as="targetPoint" />
            <Array as="points">
              <mxPoint x="780" y="1000" />
            </Array>
          </mxGeometry>
        </mxCell>
        <mxCell id="O9HUUC9VaAOcV9BN0eb_-28" value="" style="shape=umlLifeline;perimeter=lifelinePerimeter;whiteSpace=wrap;html=1;container=1;dropTarget=0;collapsible=0;recursiveResize=0;outlineConnect=0;portConstraint=eastwest;newEdgeStyle={&quot;edgeStyle&quot;:&quot;elbowEdgeStyle&quot;,&quot;elbow&quot;:&quot;vertical&quot;,&quot;curved&quot;:0,&quot;rounded&quot;:0};participant=umlActor;" parent="1" vertex="1">
          <mxGeometry x="290" y="890" width="20" height="460" as="geometry" />
        </mxCell>
        <mxCell id="O9HUUC9VaAOcV9BN0eb_-30" value="Descubridor" style="text;html=1;align=center;verticalAlign=middle;resizable=0;points=[];autosize=1;strokeColor=none;fillColor=none;" parent="1" vertex="1">
          <mxGeometry x="255" y="860" width="90" height="30" as="geometry" />
        </mxCell>
        <mxCell id="O9HUUC9VaAOcV9BN0eb_-38" value="Ingresa datos hallazgo()" style="html=1;verticalAlign=bottom;endArrow=block;edgeStyle=elbowEdgeStyle;elbow=vertical;curved=0;rounded=0;" parent="1" edge="1">
          <mxGeometry x="0.0069" relative="1" as="geometry">
            <mxPoint x="385" y="1198" as="sourcePoint" />
            <Array as="points">
              <mxPoint x="500" y="1198" />
            </Array>
            <mxPoint x="530" y="1198" as="targetPoint" />
            <mxPoint as="offset" />
          </mxGeometry>
        </mxCell>
        <mxCell id="O9HUUC9VaAOcV9BN0eb_-39" value="OK()" style="html=1;verticalAlign=bottom;endArrow=open;dashed=1;endSize=8;edgeStyle=elbowEdgeStyle;elbow=vertical;curved=0;rounded=0;" parent="1" source="O9HUUC9VaAOcV9BN0eb_-37" target="O9HUUC9VaAOcV9BN0eb_-8" edge="1">
          <mxGeometry relative="1" as="geometry">
            <mxPoint x="460" y="1255.33" as="targetPoint" />
            <Array as="points">
              <mxPoint x="490" y="1300" />
              <mxPoint x="460" y="1260" />
            </Array>
          </mxGeometry>
        </mxCell>
        <mxCell id="O9HUUC9VaAOcV9BN0eb_-41" value="Agregar(BEHallazgo)" style="html=1;verticalAlign=bottom;endArrow=block;edgeStyle=elbowEdgeStyle;elbow=vertical;curved=0;rounded=0;" parent="1" source="O9HUUC9VaAOcV9BN0eb_-37" target="O9HUUC9VaAOcV9BN0eb_-40" edge="1">
          <mxGeometry relative="1" as="geometry">
            <mxPoint x="655" y="1210" as="sourcePoint" />
            <Array as="points">
              <mxPoint x="640" y="1250" />
              <mxPoint x="660" y="1220" />
              <mxPoint x="550" y="1210" />
            </Array>
          </mxGeometry>
        </mxCell>
        <mxCell id="O9HUUC9VaAOcV9BN0eb_-42" value="BEHallazgo" style="html=1;verticalAlign=bottom;endArrow=open;dashed=1;endSize=8;edgeStyle=elbowEdgeStyle;elbow=vertical;curved=0;rounded=0;" parent="1" source="O9HUUC9VaAOcV9BN0eb_-40" target="O9HUUC9VaAOcV9BN0eb_-37" edge="1">
          <mxGeometry x="0.0008" relative="1" as="geometry">
            <mxPoint x="655" y="1285" as="targetPoint" />
            <Array as="points">
              <mxPoint x="590" y="1280" />
            </Array>
            <mxPoint as="offset" />
          </mxGeometry>
        </mxCell>
        <mxCell id="ej4OKCEAexvG4dMws27k-1" value="" style="ellipse;html=1;shape=endState;fillColor=#000000;strokeColor=#ff0000;" parent="1" vertex="1">
          <mxGeometry x="370" y="1340" width="25" height="20" as="geometry" />
        </mxCell>
      </root>
    </mxGraphModel>
  </diagram>
  <diagram name="Elemento" id="A-orRytzj3CsjvgJPvsr">
    <mxGraphModel dx="596" dy="350" grid="1" gridSize="10" guides="1" tooltips="1" connect="1" arrows="1" fold="1" page="1" pageScale="1" pageWidth="827" pageHeight="1169" math="0" shadow="0">
      <root>
        <mxCell id="A2rfT9lGhWCGEGuSBZPX-0" />
        <mxCell id="A2rfT9lGhWCGEGuSBZPX-1" parent="A2rfT9lGhWCGEGuSBZPX-0" />
        <mxCell id="A2rfT9lGhWCGEGuSBZPX-2" value="" style="shape=umlLifeline;perimeter=lifelinePerimeter;whiteSpace=wrap;html=1;container=1;dropTarget=0;collapsible=0;recursiveResize=0;outlineConnect=0;portConstraint=eastwest;newEdgeStyle={&quot;edgeStyle&quot;:&quot;elbowEdgeStyle&quot;,&quot;elbow&quot;:&quot;vertical&quot;,&quot;curved&quot;:0,&quot;rounded&quot;:0};participant=umlActor;" parent="A2rfT9lGhWCGEGuSBZPX-1" vertex="1">
          <mxGeometry x="370" y="890" width="20" height="490" as="geometry" />
        </mxCell>
        <mxCell id="A2rfT9lGhWCGEGuSBZPX-3" value="" style="html=1;points=[];perimeter=orthogonalPerimeter;outlineConnect=0;targetShapes=umlLifeline;portConstraint=eastwest;newEdgeStyle={&quot;edgeStyle&quot;:&quot;elbowEdgeStyle&quot;,&quot;elbow&quot;:&quot;vertical&quot;,&quot;curved&quot;:0,&quot;rounded&quot;:0};" parent="A2rfT9lGhWCGEGuSBZPX-2" vertex="1">
          <mxGeometry x="5" y="70" width="10" height="400" as="geometry" />
        </mxCell>
        <mxCell id="A2rfT9lGhWCGEGuSBZPX-4" value="" style="shape=umlLifeline;perimeter=lifelinePerimeter;whiteSpace=wrap;html=1;container=1;dropTarget=0;collapsible=0;recursiveResize=0;outlineConnect=0;portConstraint=eastwest;newEdgeStyle={&quot;edgeStyle&quot;:&quot;elbowEdgeStyle&quot;,&quot;elbow&quot;:&quot;vertical&quot;,&quot;curved&quot;:0,&quot;rounded&quot;:0};participant=umlBoundary;fontSize=12;fillColor=#dae8fc;strokeColor=#6c8ebf;" parent="A2rfT9lGhWCGEGuSBZPX-1" vertex="1">
          <mxGeometry x="510" y="890" width="50" height="490" as="geometry" />
        </mxCell>
        <mxCell id="A2rfT9lGhWCGEGuSBZPX-5" style="edgeStyle=elbowEdgeStyle;rounded=0;orthogonalLoop=1;jettySize=auto;html=1;elbow=vertical;curved=0;" parent="A2rfT9lGhWCGEGuSBZPX-4" source="A2rfT9lGhWCGEGuSBZPX-6" target="A2rfT9lGhWCGEGuSBZPX-4" edge="1">
          <mxGeometry relative="1" as="geometry" />
        </mxCell>
        <mxCell id="A2rfT9lGhWCGEGuSBZPX-6" value="" style="html=1;points=[];perimeter=orthogonalPerimeter;outlineConnect=0;targetShapes=umlLifeline;portConstraint=eastwest;newEdgeStyle={&quot;edgeStyle&quot;:&quot;elbowEdgeStyle&quot;,&quot;elbow&quot;:&quot;vertical&quot;,&quot;curved&quot;:0,&quot;rounded&quot;:0};" parent="A2rfT9lGhWCGEGuSBZPX-4" vertex="1">
          <mxGeometry x="20" y="70" width="10" height="190" as="geometry" />
        </mxCell>
        <mxCell id="A2rfT9lGhWCGEGuSBZPX-7" value="" style="html=1;points=[];perimeter=orthogonalPerimeter;outlineConnect=0;targetShapes=umlLifeline;portConstraint=eastwest;newEdgeStyle={&quot;edgeStyle&quot;:&quot;elbowEdgeStyle&quot;,&quot;elbow&quot;:&quot;vertical&quot;,&quot;curved&quot;:0,&quot;rounded&quot;:0};" parent="A2rfT9lGhWCGEGuSBZPX-4" vertex="1">
          <mxGeometry x="20" y="300" width="10" height="170" as="geometry" />
        </mxCell>
        <mxCell id="A2rfT9lGhWCGEGuSBZPX-8" value="CrearElemento():BEElemento" style="html=1;align=left;spacingLeft=2;endArrow=block;rounded=0;edgeStyle=orthogonalEdgeStyle;curved=0;rounded=0;" parent="A2rfT9lGhWCGEGuSBZPX-4" edge="1">
          <mxGeometry relative="1" as="geometry">
            <mxPoint x="30" y="339" as="sourcePoint" />
            <Array as="points">
              <mxPoint x="60" y="339" />
              <mxPoint x="60" y="369" />
            </Array>
            <mxPoint x="30" y="369" as="targetPoint" />
          </mxGeometry>
        </mxCell>
        <mxCell id="A2rfT9lGhWCGEGuSBZPX-9" value="Instructor" style="text;html=1;align=center;verticalAlign=middle;resizable=0;points=[];autosize=1;strokeColor=none;fillColor=none;" parent="A2rfT9lGhWCGEGuSBZPX-1" vertex="1">
          <mxGeometry x="345" y="860" width="70" height="30" as="geometry" />
        </mxCell>
        <mxCell id="A2rfT9lGhWCGEGuSBZPX-10" value=":BLLElemento" style="shape=umlLifeline;perimeter=lifelinePerimeter;whiteSpace=wrap;html=1;container=1;dropTarget=0;collapsible=0;recursiveResize=0;outlineConnect=0;portConstraint=eastwest;newEdgeStyle={&quot;edgeStyle&quot;:&quot;elbowEdgeStyle&quot;,&quot;elbow&quot;:&quot;vertical&quot;,&quot;curved&quot;:0,&quot;rounded&quot;:0};fillColor=#f8cecc;strokeColor=#b85450;" parent="A2rfT9lGhWCGEGuSBZPX-1" vertex="1">
          <mxGeometry x="761" y="880" width="100" height="510" as="geometry" />
        </mxCell>
        <mxCell id="A2rfT9lGhWCGEGuSBZPX-12" value="" style="html=1;points=[];perimeter=orthogonalPerimeter;outlineConnect=0;targetShapes=umlLifeline;portConstraint=eastwest;newEdgeStyle={&quot;edgeStyle&quot;:&quot;elbowEdgeStyle&quot;,&quot;elbow&quot;:&quot;vertical&quot;,&quot;curved&quot;:0,&quot;rounded&quot;:0};" parent="A2rfT9lGhWCGEGuSBZPX-10" vertex="1">
          <mxGeometry x="45" y="390" width="10" height="50" as="geometry" />
        </mxCell>
        <mxCell id="A2rfT9lGhWCGEGuSBZPX-13" value="UI Elemento" style="text;html=1;align=center;verticalAlign=middle;resizable=0;points=[];autosize=1;strokeColor=none;fillColor=none;" parent="A2rfT9lGhWCGEGuSBZPX-1" vertex="1">
          <mxGeometry x="490" y="860" width="90" height="30" as="geometry" />
        </mxCell>
        <mxCell id="A2rfT9lGhWCGEGuSBZPX-14" value="Ingresar UI Elemento()" style="html=1;verticalAlign=bottom;endArrow=block;edgeStyle=elbowEdgeStyle;elbow=vertical;curved=0;rounded=0;" parent="A2rfT9lGhWCGEGuSBZPX-1" source="A2rfT9lGhWCGEGuSBZPX-3" target="A2rfT9lGhWCGEGuSBZPX-6" edge="1">
          <mxGeometry relative="1" as="geometry">
            <mxPoint x="460" y="970" as="sourcePoint" />
            <Array as="points">
              <mxPoint x="480" y="970" />
              <mxPoint x="360" y="960" />
            </Array>
          </mxGeometry>
        </mxCell>
        <mxCell id="A2rfT9lGhWCGEGuSBZPX-15" value="mostrarCampos()" style="html=1;verticalAlign=bottom;endArrow=open;dashed=1;endSize=8;edgeStyle=elbowEdgeStyle;elbow=vertical;curved=0;rounded=0;" parent="A2rfT9lGhWCGEGuSBZPX-1" source="A2rfT9lGhWCGEGuSBZPX-6" target="A2rfT9lGhWCGEGuSBZPX-3" edge="1">
          <mxGeometry relative="1" as="geometry">
            <mxPoint x="460" y="1045" as="targetPoint" />
            <Array as="points">
              <mxPoint x="450" y="1140" />
            </Array>
          </mxGeometry>
        </mxCell>
        <mxCell id="A2rfT9lGhWCGEGuSBZPX-16" value=":BLLCategoria" style="shape=umlLifeline;perimeter=lifelinePerimeter;whiteSpace=wrap;html=1;container=1;dropTarget=0;collapsible=0;recursiveResize=0;outlineConnect=0;portConstraint=eastwest;newEdgeStyle={&quot;edgeStyle&quot;:&quot;elbowEdgeStyle&quot;,&quot;elbow&quot;:&quot;vertical&quot;,&quot;curved&quot;:0,&quot;rounded&quot;:0};fillColor=#f8cecc;strokeColor=#b85450;" parent="A2rfT9lGhWCGEGuSBZPX-1" vertex="1">
          <mxGeometry x="890" y="880" width="100" height="510" as="geometry" />
        </mxCell>
        <mxCell id="A2rfT9lGhWCGEGuSBZPX-17" value="" style="html=1;points=[];perimeter=orthogonalPerimeter;outlineConnect=0;targetShapes=umlLifeline;portConstraint=eastwest;newEdgeStyle={&quot;edgeStyle&quot;:&quot;elbowEdgeStyle&quot;,&quot;elbow&quot;:&quot;vertical&quot;,&quot;curved&quot;:0,&quot;rounded&quot;:0};" parent="A2rfT9lGhWCGEGuSBZPX-16" vertex="1">
          <mxGeometry x="45" y="90" width="10" height="60" as="geometry" />
        </mxCell>
        <mxCell id="A2rfT9lGhWCGEGuSBZPX-23" value="ObtenerCategorias()" style="html=1;verticalAlign=bottom;endArrow=block;edgeStyle=elbowEdgeStyle;elbow=vertical;curved=0;rounded=0;" parent="A2rfT9lGhWCGEGuSBZPX-1" source="A2rfT9lGhWCGEGuSBZPX-6" target="A2rfT9lGhWCGEGuSBZPX-17" edge="1">
          <mxGeometry relative="1" as="geometry">
            <mxPoint x="670" y="1050" as="sourcePoint" />
            <Array as="points">
              <mxPoint x="620" y="980" />
              <mxPoint x="830" y="970" />
            </Array>
          </mxGeometry>
        </mxCell>
        <mxCell id="A2rfT9lGhWCGEGuSBZPX-24" value="List&amp;lt;BECategoria&amp;gt;" style="html=1;verticalAlign=bottom;endArrow=open;dashed=1;endSize=8;edgeStyle=elbowEdgeStyle;elbow=vertical;curved=0;rounded=0;" parent="A2rfT9lGhWCGEGuSBZPX-1" source="A2rfT9lGhWCGEGuSBZPX-17" target="A2rfT9lGhWCGEGuSBZPX-6" edge="1">
          <mxGeometry relative="1" as="geometry">
            <mxPoint x="670" y="1125" as="targetPoint" />
            <Array as="points">
              <mxPoint x="790" y="1020" />
            </Array>
          </mxGeometry>
        </mxCell>
        <mxCell id="A2rfT9lGhWCGEGuSBZPX-27" value="Ingresa datos Elementos()" style="html=1;verticalAlign=bottom;endArrow=block;edgeStyle=elbowEdgeStyle;elbow=vertical;curved=0;rounded=0;" parent="A2rfT9lGhWCGEGuSBZPX-1" edge="1">
          <mxGeometry relative="1" as="geometry">
            <mxPoint x="385" y="1198" as="sourcePoint" />
            <Array as="points">
              <mxPoint x="500" y="1198" />
            </Array>
            <mxPoint x="530" y="1198" as="targetPoint" />
          </mxGeometry>
        </mxCell>
        <mxCell id="A2rfT9lGhWCGEGuSBZPX-28" value="Mostrar elementos()" style="html=1;verticalAlign=bottom;endArrow=open;dashed=1;endSize=8;edgeStyle=elbowEdgeStyle;elbow=vertical;curved=0;rounded=0;" parent="A2rfT9lGhWCGEGuSBZPX-1" source="A2rfT9lGhWCGEGuSBZPX-7" target="A2rfT9lGhWCGEGuSBZPX-3" edge="1">
          <mxGeometry relative="1" as="geometry">
            <mxPoint x="460" y="1255.33" as="targetPoint" />
            <Array as="points">
              <mxPoint x="490" y="1330" />
              <mxPoint x="460" y="1260" />
            </Array>
          </mxGeometry>
        </mxCell>
        <mxCell id="A2rfT9lGhWCGEGuSBZPX-29" value="AgregarElementoHallazgo(BEHallazgo ,BEElemento)" style="html=1;verticalAlign=bottom;endArrow=block;edgeStyle=elbowEdgeStyle;elbow=vertical;curved=0;rounded=0;" parent="A2rfT9lGhWCGEGuSBZPX-1" target="A2rfT9lGhWCGEGuSBZPX-12" edge="1">
          <mxGeometry x="-0.001" relative="1" as="geometry">
            <mxPoint x="540" y="1282" as="sourcePoint" />
            <Array as="points">
              <mxPoint x="640" y="1282" />
              <mxPoint x="660" y="1252" />
              <mxPoint x="550" y="1242" />
            </Array>
            <mxPoint x="737" y="1282" as="targetPoint" />
            <mxPoint as="offset" />
          </mxGeometry>
        </mxCell>
        <mxCell id="A2rfT9lGhWCGEGuSBZPX-30" value="OK():bool" style="html=1;verticalAlign=bottom;endArrow=open;dashed=1;endSize=8;edgeStyle=elbowEdgeStyle;elbow=vertical;curved=0;rounded=0;" parent="A2rfT9lGhWCGEGuSBZPX-1" source="A2rfT9lGhWCGEGuSBZPX-12" edge="1">
          <mxGeometry x="0.0008" relative="1" as="geometry">
            <mxPoint x="540" y="1308" as="targetPoint" />
            <Array as="points">
              <mxPoint x="590" y="1308" />
            </Array>
            <mxPoint as="offset" />
          </mxGeometry>
        </mxCell>
        <mxCell id="YlGeLhQk132Ek1MZTJKb-0" value=":BLLArticulo" style="shape=umlLifeline;perimeter=lifelinePerimeter;whiteSpace=wrap;html=1;container=1;dropTarget=0;collapsible=0;recursiveResize=0;outlineConnect=0;portConstraint=eastwest;newEdgeStyle={&quot;edgeStyle&quot;:&quot;elbowEdgeStyle&quot;,&quot;elbow&quot;:&quot;vertical&quot;,&quot;curved&quot;:0,&quot;rounded&quot;:0};fillColor=#f8cecc;strokeColor=#b85450;" parent="A2rfT9lGhWCGEGuSBZPX-1" vertex="1">
          <mxGeometry x="1050" y="880" width="100" height="510" as="geometry" />
        </mxCell>
        <mxCell id="YlGeLhQk132Ek1MZTJKb-1" value="" style="html=1;points=[];perimeter=orthogonalPerimeter;outlineConnect=0;targetShapes=umlLifeline;portConstraint=eastwest;newEdgeStyle={&quot;edgeStyle&quot;:&quot;elbowEdgeStyle&quot;,&quot;elbow&quot;:&quot;vertical&quot;,&quot;curved&quot;:0,&quot;rounded&quot;:0};" parent="YlGeLhQk132Ek1MZTJKb-0" vertex="1">
          <mxGeometry x="45" y="110" width="10" height="30" as="geometry" />
        </mxCell>
        <mxCell id="YlGeLhQk132Ek1MZTJKb-2" value=":BLLEstado_Elemento" style="shape=umlLifeline;perimeter=lifelinePerimeter;whiteSpace=wrap;html=1;container=1;dropTarget=0;collapsible=0;recursiveResize=0;outlineConnect=0;portConstraint=eastwest;newEdgeStyle={&quot;edgeStyle&quot;:&quot;elbowEdgeStyle&quot;,&quot;elbow&quot;:&quot;vertical&quot;,&quot;curved&quot;:0,&quot;rounded&quot;:0};fillColor=#f8cecc;strokeColor=#b85450;" parent="A2rfT9lGhWCGEGuSBZPX-1" vertex="1">
          <mxGeometry x="1190" y="880" width="130" height="520" as="geometry" />
        </mxCell>
        <mxCell id="YlGeLhQk132Ek1MZTJKb-3" value="" style="html=1;points=[];perimeter=orthogonalPerimeter;outlineConnect=0;targetShapes=umlLifeline;portConstraint=eastwest;newEdgeStyle={&quot;edgeStyle&quot;:&quot;elbowEdgeStyle&quot;,&quot;elbow&quot;:&quot;vertical&quot;,&quot;curved&quot;:0,&quot;rounded&quot;:0};" parent="YlGeLhQk132Ek1MZTJKb-2" vertex="1">
          <mxGeometry x="60" y="170" width="10" height="50" as="geometry" />
        </mxCell>
        <mxCell id="YlGeLhQk132Ek1MZTJKb-5" value="ObtenerAriculos(BECategoria)" style="html=1;verticalAlign=bottom;endArrow=block;edgeStyle=elbowEdgeStyle;elbow=vertical;curved=0;rounded=0;" parent="A2rfT9lGhWCGEGuSBZPX-1" source="A2rfT9lGhWCGEGuSBZPX-17" target="YlGeLhQk132Ek1MZTJKb-1" edge="1">
          <mxGeometry relative="1" as="geometry">
            <mxPoint x="620" y="990" as="sourcePoint" />
            <Array as="points">
              <mxPoint x="970" y="990" />
              <mxPoint x="910" y="980" />
            </Array>
            <mxPoint x="945" y="990" as="targetPoint" />
            <mxPoint as="offset" />
          </mxGeometry>
        </mxCell>
        <mxCell id="YlGeLhQk132Ek1MZTJKb-7" value="List&amp;lt;BEArticulo&amp;gt;" style="html=1;verticalAlign=bottom;endArrow=open;dashed=1;endSize=8;edgeStyle=elbowEdgeStyle;elbow=vertical;curved=0;rounded=0;" parent="A2rfT9lGhWCGEGuSBZPX-1" source="YlGeLhQk132Ek1MZTJKb-1" target="A2rfT9lGhWCGEGuSBZPX-17" edge="1">
          <mxGeometry relative="1" as="geometry">
            <mxPoint x="620" y="1030" as="targetPoint" />
            <Array as="points">
              <mxPoint x="1000" y="1010" />
              <mxPoint x="870" y="1030" />
            </Array>
            <mxPoint x="945" y="1030" as="sourcePoint" />
          </mxGeometry>
        </mxCell>
        <mxCell id="YlGeLhQk132Ek1MZTJKb-8" value="Loop" style="shape=umlFrame;whiteSpace=wrap;html=1;pointerEvents=0;width=50;height=20;fillColor=#1ba1e2;fontColor=#ffffff;strokeColor=#006EAF;" parent="A2rfT9lGhWCGEGuSBZPX-1" vertex="1">
          <mxGeometry x="890" y="950" width="250" height="80" as="geometry" />
        </mxCell>
        <mxCell id="YlGeLhQk132Ek1MZTJKb-9" value="ObtenerEstados()" style="html=1;verticalAlign=bottom;endArrow=block;edgeStyle=elbowEdgeStyle;elbow=vertical;curved=0;rounded=0;" parent="A2rfT9lGhWCGEGuSBZPX-1" source="A2rfT9lGhWCGEGuSBZPX-6" target="YlGeLhQk132Ek1MZTJKb-3" edge="1">
          <mxGeometry relative="1" as="geometry">
            <mxPoint x="610" y="1055" as="sourcePoint" />
            <Array as="points">
              <mxPoint x="1210" y="1055" />
              <mxPoint x="630" y="1050" />
              <mxPoint x="800" y="1040" />
              <mxPoint x="700" y="990" />
              <mxPoint x="910" y="980" />
            </Array>
            <mxPoint x="945" y="990" as="targetPoint" />
          </mxGeometry>
        </mxCell>
        <mxCell id="YlGeLhQk132Ek1MZTJKb-10" value="List&amp;lt;BEEstado_Elemento&amp;gt;" style="html=1;verticalAlign=bottom;endArrow=open;dashed=1;endSize=8;edgeStyle=elbowEdgeStyle;elbow=vertical;curved=0;rounded=0;" parent="A2rfT9lGhWCGEGuSBZPX-1" source="YlGeLhQk132Ek1MZTJKb-3" target="A2rfT9lGhWCGEGuSBZPX-6" edge="1">
          <mxGeometry relative="1" as="geometry">
            <mxPoint x="610" y="1090" as="targetPoint" />
            <Array as="points">
              <mxPoint x="1080" y="1090" />
              <mxPoint x="880" y="1080" />
            </Array>
            <mxPoint x="955" y="1080" as="sourcePoint" />
          </mxGeometry>
        </mxCell>
        <mxCell id="YlGeLhQk132Ek1MZTJKb-11" value="Loop" style="shape=umlFrame;whiteSpace=wrap;html=1;pointerEvents=0;width=50;height=20;fillColor=#1ba1e2;fontColor=#ffffff;strokeColor=#006EAF;" parent="A2rfT9lGhWCGEGuSBZPX-1" vertex="1">
          <mxGeometry x="330" y="1180" width="510" height="160" as="geometry" />
        </mxCell>
        <mxCell id="YlGeLhQk132Ek1MZTJKb-15" value="" style="ellipse;html=1;shape=endState;fillColor=#000000;strokeColor=#ff0000;" parent="A2rfT9lGhWCGEGuSBZPX-1" vertex="1">
          <mxGeometry x="367.5" y="1370" width="25" height="20" as="geometry" />
        </mxCell>
      </root>
    </mxGraphModel>
  </diagram>
  <diagram name="Intervinientes" id="DneeqVPw3gymN1wnQvtL">
    <mxGraphModel dx="524" dy="308" grid="1" gridSize="10" guides="1" tooltips="1" connect="1" arrows="1" fold="1" page="1" pageScale="1" pageWidth="827" pageHeight="1169" background="#ffffff" math="0" shadow="0">
      <root>
        <mxCell id="6egyOeeNCdMymKJtTczB-0" />
        <mxCell id="6egyOeeNCdMymKJtTczB-1" parent="6egyOeeNCdMymKJtTczB-0" />
        <mxCell id="6egyOeeNCdMymKJtTczB-2" value="" style="shape=umlLifeline;perimeter=lifelinePerimeter;whiteSpace=wrap;html=1;container=1;dropTarget=0;collapsible=0;recursiveResize=0;outlineConnect=0;portConstraint=eastwest;newEdgeStyle={&quot;edgeStyle&quot;:&quot;elbowEdgeStyle&quot;,&quot;elbow&quot;:&quot;vertical&quot;,&quot;curved&quot;:0,&quot;rounded&quot;:0};participant=umlActor;" parent="6egyOeeNCdMymKJtTczB-1" vertex="1">
          <mxGeometry x="370" y="890" width="20" height="490" as="geometry" />
        </mxCell>
        <mxCell id="6egyOeeNCdMymKJtTczB-3" value="" style="html=1;points=[];perimeter=orthogonalPerimeter;outlineConnect=0;targetShapes=umlLifeline;portConstraint=eastwest;newEdgeStyle={&quot;edgeStyle&quot;:&quot;elbowEdgeStyle&quot;,&quot;elbow&quot;:&quot;vertical&quot;,&quot;curved&quot;:0,&quot;rounded&quot;:0};" parent="6egyOeeNCdMymKJtTczB-2" vertex="1">
          <mxGeometry x="5" y="70" width="10" height="400" as="geometry" />
        </mxCell>
        <mxCell id="6egyOeeNCdMymKJtTczB-4" value="" style="shape=umlLifeline;perimeter=lifelinePerimeter;whiteSpace=wrap;html=1;container=1;dropTarget=0;collapsible=0;recursiveResize=0;outlineConnect=0;portConstraint=eastwest;newEdgeStyle={&quot;edgeStyle&quot;:&quot;elbowEdgeStyle&quot;,&quot;elbow&quot;:&quot;vertical&quot;,&quot;curved&quot;:0,&quot;rounded&quot;:0};participant=umlBoundary;fontSize=12;fillColor=#dae8fc;strokeColor=#6c8ebf;" parent="6egyOeeNCdMymKJtTczB-1" vertex="1">
          <mxGeometry x="510" y="890" width="50" height="490" as="geometry" />
        </mxCell>
        <mxCell id="6egyOeeNCdMymKJtTczB-5" style="edgeStyle=elbowEdgeStyle;rounded=0;orthogonalLoop=1;jettySize=auto;html=1;elbow=vertical;curved=0;" parent="6egyOeeNCdMymKJtTczB-4" source="6egyOeeNCdMymKJtTczB-6" target="6egyOeeNCdMymKJtTczB-4" edge="1">
          <mxGeometry relative="1" as="geometry" />
        </mxCell>
        <mxCell id="6egyOeeNCdMymKJtTczB-6" value="" style="html=1;points=[];perimeter=orthogonalPerimeter;outlineConnect=0;targetShapes=umlLifeline;portConstraint=eastwest;newEdgeStyle={&quot;edgeStyle&quot;:&quot;elbowEdgeStyle&quot;,&quot;elbow&quot;:&quot;vertical&quot;,&quot;curved&quot;:0,&quot;rounded&quot;:0};" parent="6egyOeeNCdMymKJtTczB-4" vertex="1">
          <mxGeometry x="20" y="70" width="10" height="190" as="geometry" />
        </mxCell>
        <mxCell id="6egyOeeNCdMymKJtTczB-7" value="" style="html=1;points=[];perimeter=orthogonalPerimeter;outlineConnect=0;targetShapes=umlLifeline;portConstraint=eastwest;newEdgeStyle={&quot;edgeStyle&quot;:&quot;elbowEdgeStyle&quot;,&quot;elbow&quot;:&quot;vertical&quot;,&quot;curved&quot;:0,&quot;rounded&quot;:0};" parent="6egyOeeNCdMymKJtTczB-4" vertex="1">
          <mxGeometry x="20" y="300" width="10" height="170" as="geometry" />
        </mxCell>
        <mxCell id="6egyOeeNCdMymKJtTczB-9" value="Instructor" style="text;html=1;align=center;verticalAlign=middle;resizable=0;points=[];autosize=1;strokeColor=none;fillColor=none;" parent="6egyOeeNCdMymKJtTczB-1" vertex="1">
          <mxGeometry x="345" y="860" width="70" height="30" as="geometry" />
        </mxCell>
        <mxCell id="6egyOeeNCdMymKJtTczB-12" value="UI Intervientes" style="text;html=1;align=center;verticalAlign=middle;resizable=0;points=[];autosize=1;strokeColor=none;fillColor=none;" parent="6egyOeeNCdMymKJtTczB-1" vertex="1">
          <mxGeometry x="485" y="860" width="100" height="30" as="geometry" />
        </mxCell>
        <mxCell id="6egyOeeNCdMymKJtTczB-13" value="Ingresar UI Intervinientes()" style="html=1;verticalAlign=bottom;endArrow=block;edgeStyle=elbowEdgeStyle;elbow=vertical;curved=0;rounded=0;" parent="6egyOeeNCdMymKJtTczB-1" source="6egyOeeNCdMymKJtTczB-3" target="6egyOeeNCdMymKJtTczB-6" edge="1">
          <mxGeometry relative="1" as="geometry">
            <mxPoint x="460" y="970" as="sourcePoint" />
            <Array as="points">
              <mxPoint x="480" y="970" />
              <mxPoint x="360" y="960" />
            </Array>
          </mxGeometry>
        </mxCell>
        <mxCell id="6egyOeeNCdMymKJtTczB-14" value="mostrarCampos()" style="html=1;verticalAlign=bottom;endArrow=open;dashed=1;endSize=8;edgeStyle=elbowEdgeStyle;elbow=vertical;curved=0;rounded=0;" parent="6egyOeeNCdMymKJtTczB-1" source="6egyOeeNCdMymKJtTczB-6" target="6egyOeeNCdMymKJtTczB-3" edge="1">
          <mxGeometry relative="1" as="geometry">
            <mxPoint x="460" y="1045" as="targetPoint" />
            <Array as="points">
              <mxPoint x="450" y="1140" />
            </Array>
          </mxGeometry>
        </mxCell>
        <mxCell id="6egyOeeNCdMymKJtTczB-15" value=":BLLHallago" style="shape=umlLifeline;perimeter=lifelinePerimeter;whiteSpace=wrap;html=1;container=1;dropTarget=0;collapsible=0;recursiveResize=0;outlineConnect=0;portConstraint=eastwest;newEdgeStyle={&quot;edgeStyle&quot;:&quot;elbowEdgeStyle&quot;,&quot;elbow&quot;:&quot;vertical&quot;,&quot;curved&quot;:0,&quot;rounded&quot;:0};fillColor=#f8cecc;strokeColor=#b85450;" parent="6egyOeeNCdMymKJtTczB-1" vertex="1">
          <mxGeometry x="700" y="890" width="100" height="510" as="geometry" />
        </mxCell>
        <mxCell id="6egyOeeNCdMymKJtTczB-19" value="Ingresa datos Intervinientes()" style="html=1;verticalAlign=bottom;endArrow=block;edgeStyle=elbowEdgeStyle;elbow=vertical;curved=0;rounded=0;" parent="6egyOeeNCdMymKJtTczB-1" edge="1">
          <mxGeometry relative="1" as="geometry">
            <mxPoint x="385" y="1198" as="sourcePoint" />
            <Array as="points">
              <mxPoint x="500" y="1198" />
            </Array>
            <mxPoint x="530" y="1198" as="targetPoint" />
          </mxGeometry>
        </mxCell>
        <mxCell id="6egyOeeNCdMymKJtTczB-20" value="Mostrar elementos()" style="html=1;verticalAlign=bottom;endArrow=open;dashed=1;endSize=8;edgeStyle=elbowEdgeStyle;elbow=vertical;curved=0;rounded=0;" parent="6egyOeeNCdMymKJtTczB-1" source="6egyOeeNCdMymKJtTczB-7" target="6egyOeeNCdMymKJtTczB-3" edge="1">
          <mxGeometry relative="1" as="geometry">
            <mxPoint x="460" y="1255.33" as="targetPoint" />
            <Array as="points">
              <mxPoint x="490" y="1330" />
              <mxPoint x="460" y="1260" />
            </Array>
          </mxGeometry>
        </mxCell>
        <mxCell id="6egyOeeNCdMymKJtTczB-23" value=":BLLJerarquia" style="shape=umlLifeline;perimeter=lifelinePerimeter;whiteSpace=wrap;html=1;container=1;dropTarget=0;collapsible=0;recursiveResize=0;outlineConnect=0;portConstraint=eastwest;newEdgeStyle={&quot;edgeStyle&quot;:&quot;elbowEdgeStyle&quot;,&quot;elbow&quot;:&quot;vertical&quot;,&quot;curved&quot;:0,&quot;rounded&quot;:0};fillColor=#f8cecc;strokeColor=#b85450;" parent="6egyOeeNCdMymKJtTczB-1" vertex="1">
          <mxGeometry x="860" y="890" width="100" height="510" as="geometry" />
        </mxCell>
        <mxCell id="SS5vai6xF6zb-y6_7noo-0" value="" style="html=1;points=[];perimeter=orthogonalPerimeter;outlineConnect=0;targetShapes=umlLifeline;portConstraint=eastwest;newEdgeStyle={&quot;edgeStyle&quot;:&quot;elbowEdgeStyle&quot;,&quot;elbow&quot;:&quot;vertical&quot;,&quot;curved&quot;:0,&quot;rounded&quot;:0};" vertex="1" parent="6egyOeeNCdMymKJtTczB-23">
          <mxGeometry x="45" y="80" width="10" height="50" as="geometry" />
        </mxCell>
        <mxCell id="6egyOeeNCdMymKJtTczB-25" value=":BLLEstado_Persona" style="shape=umlLifeline;perimeter=lifelinePerimeter;whiteSpace=wrap;html=1;container=1;dropTarget=0;collapsible=0;recursiveResize=0;outlineConnect=0;portConstraint=eastwest;newEdgeStyle={&quot;edgeStyle&quot;:&quot;elbowEdgeStyle&quot;,&quot;elbow&quot;:&quot;vertical&quot;,&quot;curved&quot;:0,&quot;rounded&quot;:0};fillColor=#f8cecc;strokeColor=#b85450;" parent="6egyOeeNCdMymKJtTczB-1" vertex="1">
          <mxGeometry x="1020" y="890" width="120" height="520" as="geometry" />
        </mxCell>
        <mxCell id="SS5vai6xF6zb-y6_7noo-5" value="" style="html=1;points=[];perimeter=orthogonalPerimeter;outlineConnect=0;targetShapes=umlLifeline;portConstraint=eastwest;newEdgeStyle={&quot;edgeStyle&quot;:&quot;elbowEdgeStyle&quot;,&quot;elbow&quot;:&quot;vertical&quot;,&quot;curved&quot;:0,&quot;rounded&quot;:0};" vertex="1" parent="6egyOeeNCdMymKJtTczB-25">
          <mxGeometry x="50" y="140" width="10" height="40" as="geometry" />
        </mxCell>
        <mxCell id="6egyOeeNCdMymKJtTczB-33" value="" style="ellipse;html=1;shape=endState;fillColor=#000000;strokeColor=#ff0000;" parent="6egyOeeNCdMymKJtTczB-1" vertex="1">
          <mxGeometry x="367.5" y="1370" width="25" height="20" as="geometry" />
        </mxCell>
        <mxCell id="xtMm1HphtkGr6RkrGH5_-0" value=":BLLPersona" style="shape=umlLifeline;perimeter=lifelinePerimeter;whiteSpace=wrap;html=1;container=1;dropTarget=0;collapsible=0;recursiveResize=0;outlineConnect=0;portConstraint=eastwest;newEdgeStyle={&quot;edgeStyle&quot;:&quot;elbowEdgeStyle&quot;,&quot;elbow&quot;:&quot;vertical&quot;,&quot;curved&quot;:0,&quot;rounded&quot;:0};fillColor=#f8cecc;strokeColor=#b85450;" parent="6egyOeeNCdMymKJtTczB-1" vertex="1">
          <mxGeometry x="1190" y="890" width="100" height="520" as="geometry" />
        </mxCell>
        <mxCell id="xtMm1HphtkGr6RkrGH5_-2" value=":BLLInstructor" style="shape=umlLifeline;perimeter=lifelinePerimeter;whiteSpace=wrap;html=1;container=1;dropTarget=0;collapsible=0;recursiveResize=0;outlineConnect=0;portConstraint=eastwest;newEdgeStyle={&quot;edgeStyle&quot;:&quot;elbowEdgeStyle&quot;,&quot;elbow&quot;:&quot;vertical&quot;,&quot;curved&quot;:0,&quot;rounded&quot;:0};fillColor=#f8cecc;strokeColor=#b85450;" parent="6egyOeeNCdMymKJtTczB-1" vertex="1">
          <mxGeometry x="1340" y="890" width="100" height="520" as="geometry" />
        </mxCell>
        <mxCell id="SS5vai6xF6zb-y6_7noo-1" value="ObtenerJerarquias()" style="html=1;verticalAlign=bottom;endArrow=block;edgeStyle=elbowEdgeStyle;elbow=vertical;curved=0;rounded=0;" edge="1" target="SS5vai6xF6zb-y6_7noo-0" parent="6egyOeeNCdMymKJtTczB-1" source="6egyOeeNCdMymKJtTczB-6">
          <mxGeometry x="0.0027" relative="1" as="geometry">
            <mxPoint x="835" y="970" as="sourcePoint" />
            <Array as="points">
              <mxPoint x="590" y="980" />
            </Array>
            <mxPoint as="offset" />
          </mxGeometry>
        </mxCell>
        <mxCell id="SS5vai6xF6zb-y6_7noo-2" value="List&amp;lt;BEJerarquia&amp;gt;" style="html=1;verticalAlign=bottom;endArrow=open;dashed=1;endSize=8;edgeStyle=elbowEdgeStyle;elbow=vertical;curved=0;rounded=0;" edge="1" parent="6egyOeeNCdMymKJtTczB-1">
          <mxGeometry x="0.0027" relative="1" as="geometry">
            <mxPoint x="540" y="1010" as="targetPoint" />
            <mxPoint x="905" y="1010" as="sourcePoint" />
            <mxPoint as="offset" />
          </mxGeometry>
        </mxCell>
        <mxCell id="SS5vai6xF6zb-y6_7noo-7" value="List&amp;lt;BEEstado_Persona&amp;gt;" style="html=1;verticalAlign=bottom;endArrow=open;dashed=1;endSize=8;edgeStyle=elbowEdgeStyle;elbow=vertical;curved=0;rounded=0;" edge="1" parent="6egyOeeNCdMymKJtTczB-1">
          <mxGeometry relative="1" as="geometry">
            <mxPoint x="540" y="1066" as="targetPoint" />
            <mxPoint x="1070" y="1066" as="sourcePoint" />
          </mxGeometry>
        </mxCell>
        <mxCell id="SS5vai6xF6zb-y6_7noo-6" value="ObtenerEstados()" style="html=1;verticalAlign=bottom;endArrow=block;edgeStyle=elbowEdgeStyle;elbow=vertical;curved=0;rounded=0;" edge="1" target="SS5vai6xF6zb-y6_7noo-5" parent="6egyOeeNCdMymKJtTczB-1" source="6egyOeeNCdMymKJtTczB-6">
          <mxGeometry relative="1" as="geometry">
            <mxPoint x="1000" y="1030" as="sourcePoint" />
            <Array as="points">
              <mxPoint x="920" y="1040" />
            </Array>
          </mxGeometry>
        </mxCell>
        <mxCell id="onCrpUeGinR6bCB9_bxc-0" value="Loop" style="shape=umlFrame;whiteSpace=wrap;html=1;pointerEvents=0;width=50;height=20;fillColor=#1ba1e2;fontColor=#ffffff;strokeColor=#006EAF;" vertex="1" parent="6egyOeeNCdMymKJtTczB-1">
          <mxGeometry x="350" y="1180" width="1070" height="160" as="geometry" />
        </mxCell>
        <mxCell id="M92fJEi2IzNwF2hapgym-0" value="CrearPersona():BEPersona" style="html=1;align=left;spacingLeft=2;endArrow=block;rounded=0;edgeStyle=orthogonalEdgeStyle;curved=0;rounded=0;" edge="1" parent="6egyOeeNCdMymKJtTczB-1">
          <mxGeometry relative="1" as="geometry">
            <mxPoint x="540" y="1207" as="sourcePoint" />
            <Array as="points">
              <mxPoint x="570" y="1207" />
              <mxPoint x="570" y="1237" />
            </Array>
            <mxPoint x="540" y="1237" as="targetPoint" />
          </mxGeometry>
        </mxCell>
      </root>
    </mxGraphModel>
  </diagram>
  <diagram id="iiFuOnebKhvgM5mEfvIc" name="Entrega">
    <mxGraphModel dx="864" dy="508" grid="1" gridSize="10" guides="1" tooltips="1" connect="1" arrows="1" fold="1" page="1" pageScale="1" pageWidth="827" pageHeight="1169" math="0" shadow="0">
      <root>
        <mxCell id="CQy_K1IZW5XC_Oh5X_O8-0" />
        <mxCell id="CQy_K1IZW5XC_Oh5X_O8-1" parent="CQy_K1IZW5XC_Oh5X_O8-0" />
      </root>
    </mxGraphModel>
  </diagram>
  <diagram id="_IM5rHcu1BQfe1hOf6VR" name="Reporte">
    <mxGraphModel dx="5680" dy="3240" grid="1" gridSize="10" guides="1" tooltips="1" connect="1" arrows="1" fold="1" page="1" pageScale="1" pageWidth="827" pageHeight="1169" math="0" shadow="0">
      <root>
        <mxCell id="H-_01Mu2gKqrJwGbBytt-0" />
        <mxCell id="H-_01Mu2gKqrJwGbBytt-1" parent="H-_01Mu2gKqrJwGbBytt-0" />
      </root>
    </mxGraphModel>
  </diagram>
  <diagram id="Su8i1lRMTEb-RPMcNPLS" name="Administracion">
    <mxGraphModel dx="852" dy="486" grid="1" gridSize="10" guides="1" tooltips="1" connect="1" arrows="1" fold="1" page="1" pageScale="1" pageWidth="827" pageHeight="1169" math="0" shadow="0">
      <root>
        <mxCell id="D3Lr9rNi1-uC4PunXM9Z-0" />
        <mxCell id="D3Lr9rNi1-uC4PunXM9Z-1" parent="D3Lr9rNi1-uC4PunXM9Z-0" />
      </root>
    </mxGraphModel>
  </diagram>
</mxfile>
